<svg version="1.1" xmlns="http://www.w3.org/2000/svg" xmlns:xlink="http://www.w3.org/1999/xlink" x="0px" y="0px" viewBox="0 0 1950.2 682.2" style="enable-background:new 0 0 1950.2 682.2;" xml:space="preserve">
<style type="text/css">
 .st0{fill:url(#SVGID_1_);}
 .st1{fill:url(#SVGID_00000079476595676015521500000010121842835995663266_);}
 .st2{fill:#E3B333;stroke:#726CB0;stroke-width:3;stroke-miterlimit:10;}
</style>
<g id="Livello_1-2">
 <g>
 <linearGradient id="SVGID_1_" gradientUnits="userSpaceOnUse" x1="6.981994e-04" y1="449.634" x2="518.13" y2="449.634" gradientTransform="matrix(1 0 0 -1 0 684)">
 <stop offset="0" style="stop-color:#726CB0"/>
 <stop offset="0.13" style="stop-color:#867999"/>
 <stop offset="0.4" style="stop-color:#AE916E"/>
 <stop offset="0.65" style="stop-color:#CBA44E"/>
 <stop offset="0.86" style="stop-color:#DCAF3B"/>
 <stop offset="1" style="stop-color:#E3B335"/>
 </linearGradient>
 <path class="st0" d="M256.2,276.8c-1.9,25.9-8,50.8-18.2,74.6c-9.1,21.3-20.2,41.3-39.6,55.2c-19.3,13.8-41.6,6.1-48.2-16.6 c-0.8-2.7-1.1-5.5-1.6-8.3c-4-24.3-14.5-45.2-32.4-62.1c-8-7.5-16.8-14.4-24.9-21.7c-21.2-19-44-36.5-61.5-59.4 c-54.9-72.1-25.6-151.2,21-189.6c23.5-19.4,51.3-28.3,81.2-31c44.8-4.1,85.2,6.5,118.1,38.6c10.1,9.9,18.7,21.4,27.9,32 c-11.6-43.5-44.1-66.9-83.1-84.5c25.1-4.9,49.9-5.2,74.5-0.9c54.6,9.3,97.9,36.5,128.8,82.7c21.4,32,31.4,68.1,36,105.8 c4.3,34.8,8.3,69.6,12.1,104.4c4.3,39.9,6.3,79.8,3.2,119.9c-0.4,5.5-1.3,11-2,17c-2.4-0.8-4-1.2-5.5-1.8 c-29-11.7-53.3-29.3-70.6-55.8c-5-7.7-9-8.5-17.1-4.3c16.8,27.9,39,50,68.4,64.3c28,13.6,57.9,18.4,88.7,19c2,0,4,0.2,6.1,0.3 l0.8,2.4c-4.8,2.4-9.4,5.9-14.5,7.1c-43.2,10.2-84.2,3.4-122.9-17.5c-28.1-15.2-50.5-37.1-69.6-62.3c-5.5-7.3-12.2-11.7-21.1-13.9 c-7.5-1.9-14.8-4.7-21.9-7.9c-10.4-4.7-13.1-10.5-11.4-21.8c2.1-13.4,4.6-26.8,6.1-40.4c1.3-11.4-0.3-22.7-5.7-33.2 C256.9,270.3,256.4,273.6,256.2,276.8L256.2,276.8z M326.6,200.6c10.5,0.4,17.4,6.8,22.3,15.6c2.4,4.2,4.8,8.4,7.7,13.5 c4.2-20.1-4-37.5-20.2-45c-11.7-5.4-31.6-3.7-37.8,4C307.9,193.7,315.7,200.2,326.6,200.6z"/>
 <linearGradient id="SVGID_00000014615741850247441770000012132806001388891580_" gradientUnits="userSpaceOnUse" x1="339.95" y1="125.3911" x2="628.2602" y2="125.3911" gradientTransform="matrix(1 0 0 -1 0 684)">
 <stop offset="0" style="stop-color:#726CB0"/>
 <stop offset="0.38" style="stop-color:#E3B335"/>
 </linearGradient>
 <path style="fill:url(#SVGID_00000014615741850247441770000012132806001388891580_);" d="M340,435c30.5,23.9,63.4,39.2,101.3,45.8 l0.3,0v0l0,0l0,0c-2.1,38.2,3.8,74.9,24.8,107.7c15,23.6,37.3,36.7,66,35c16.7-1,30-9.2,37.8-24.7c1.3-2.6,2-5.8,1.7-8.7 c-0.6-6-3.7-7.7-9.5-5.9c-2.9,0.9-5.9,1.7-8.5,3.2c-5.5,3.3-8.4,1-11.4-3.7c-6.7-10.6-6.2-21.6,2.4-30.9 c11.2-12,25.2-14.6,40.5-10.6c6,1.6,10.7,2.5,14.1-4c1-1.9,3.4-3.3,5.4-4.5c6.5-4.3,12.9-3,15.3,4.2c17.8,52.4,8.4,108.6-51.9,134 c-17.8,7.5-35,10.7-51.8,10.3c-40.2-1-68.8-22.2-84.2-34.1c-47.2-36.2-64.4-84.9-74.7-114.4C349.8,511.3,340.8,477.6,340,435 L340,435z"/>
 </g>
 <g>
 <path class="st2" d="M650.2,386.5l89.1,122.7h-53.2l-82.2-117.9h-7.8v117.9h-43.5V221.3h50.9c38,0,65.5,7.1,82.4,21.4 c18.7,15.9,28,36.9,28,63c0,20.4-5.8,37.9-17.5,52.6C684.7,373,669.3,382.4,650.2,386.5L650.2,386.5z M596.1,353.5h13.8 c41.2,0,61.7-15.7,61.7-47.2c0-29.5-20-44.2-60-44.2h-15.5V353.5z"/>
 <path class="st2" d="M941.5,262.1H826v69.2h112.1v40.8H826v96.2h115.4v40.8H782.6V221.3h158.9V262.1L941.5,262.1z"/>
 <path class="st2" d="M1042,392.3v116.9h-43.5V221.3h49.2c24.1,0,42.3,1.7,54.6,5c12.4,3.4,23.4,9.7,32.8,19 c16.5,16.2,24.8,36.6,24.8,61.2c0,26.4-8.8,47.2-26.5,62.7c-17.7,15.4-41.5,23.1-71.4,23.1L1042,392.3L1042,392.3z M1042,352h16.2 c39.9,0,59.9-15.4,59.9-46.1s-20.6-44.6-61.7-44.6H1042L1042,352L1042,352z"/>
 <path class="st2" d="M1248.2,221.3v173.4c0,24.7,4,42.8,12.1,54.3c12.1,16.5,29,24.8,50.9,24.8s39-8.3,51.1-24.8 c8.1-11.1,12.1-29.1,12.1-54.3V221.3h43.4v185.4c0,30.3-9.4,55.3-28.3,75c-21.3,21.9-47.4,32.8-78.3,32.8s-57-10.9-78.1-32.8 c-18.9-19.6-28.3-44.6-28.3-75V221.3L1248.2,221.3L1248.2,221.3z"/>
 <path class="st2" d="M1566.4,262.1v247.1H1523V262.1h-66.2v-40.8h175.7v40.8H1566.4L1566.4,262.1z"/>
 <path class="st2" d="M1647.7,363.9c0-40.5,14.9-75.3,44.6-104.4c29.6-29.1,65.2-43.6,106.7-43.6s76.2,14.7,105.6,44 c29.5,29.3,44.2,64.6,44.2,105.7s-14.8,76.5-44.4,105.4c-29.7,29-65.6,43.5-107.6,43.5c-37.2,0-70.6-12.9-100.1-38.6 C1664,447.4,1647.7,410.1,1647.7,363.9L1647.7,363.9z M1691.5,364.5c0,31.8,10.7,58,32.1,78.5c21.3,20.5,45.8,30.8,73.7,30.8 c30.2,0,55.7-10.4,76.5-31.3c20.8-21.1,31.1-46.9,31.1-77.2s-10.3-56.4-30.8-77.2c-20.4-20.9-45.6-31.3-75.7-31.3 s-55.3,10.4-75.9,31.3C1701.9,308.7,1691.5,334.2,1691.5,364.5L1691.5,364.5z"/>
 </g>
</g>
</svg>
